<svg width="64" height="64" viewBox="0 0 64 64" fill="none" xmlns="http://www.w3.org/2000/svg">
<path d="M52.8968 31.3591C51.6985 31.9147 50.3929 32.2034 49.0495 32.2037C47.4545 32.2039 45.8778 31.7803 44.4894 30.9786C41.8977 29.4823 40.2269 26.8078 39.9587 23.8851C37.0206 23.6166 34.3539 21.9319 32.8654 19.3539C31.3694 16.7628 31.2592 13.6122 32.4875 10.9473C30.6072 9.62627 29.2964 7.64882 28.8154 5.40002C22.4155 5.60538 16.5397 7.91695 11.8555 11.6605C13.0828 12.8503 13.8094 14.5033 13.8094 16.2862C13.8094 18.5682 12.6166 20.5754 10.8225 21.7213C9.82214 22.3602 8.63574 22.7324 7.36323 22.7324C6.46675 22.7324 5.59237 22.5466 4.78783 22.1956C4.78383 22.1997 4.77984 22.2037 4.77585 22.2078C4.47473 23.0426 4.21212 23.8957 3.98758 24.7641C3.38962 27.0775 3.06946 29.5018 3.06946 32C3.06946 47.9523 16.0476 60.9305 31.9998 60.9305C38.3097 60.9305 44.1524 58.898 48.9121 55.4559C49.0125 55.3658 49.1412 55.2711 49.2907 55.1731C51.0734 53.8397 52.7006 52.3095 54.1329 50.6086C52.4735 49.421 51.4224 47.4773 51.4224 45.3607C51.4224 43.9563 51.8752 42.6565 52.6406 41.5964C53.767 40.0364 55.5728 39.0001 57.6209 38.922C57.7012 38.9176 57.7831 38.9145 57.8688 38.9145C57.9308 38.9145 57.9926 38.9166 58.0545 38.9185C58.2701 37.6484 58.4032 36.3508 58.4455 35.0304C56.1963 34.5498 54.2184 33.2392 52.8968 31.3591ZM20.326 51.3961C18.3165 51.3961 16.5193 50.4714 15.3361 49.0256C14.3822 47.9014 13.805 46.4479 13.805 44.8616C13.805 41.3071 16.6967 38.4154 20.2511 38.4154C22.2607 38.4154 24.0581 39.3401 25.2411 40.7859C26.195 41.9101 26.7722 43.3636 26.7722 44.95C26.7722 48.5044 23.8806 51.3961 20.326 51.3961ZM24.5865 28.1925C22.577 28.1925 20.7797 27.2678 19.5965 25.822C18.6427 24.6977 18.0654 23.2443 18.0654 21.6579C18.0654 18.1035 20.9572 15.2117 24.5116 15.2117C26.5211 15.2117 28.3184 16.1364 29.5016 17.5822C30.4554 18.7065 31.0327 20.1599 31.0327 21.7463C31.0327 25.3006 28.1411 28.1925 24.5865 28.1925ZM37.9039 48.321C35.3232 48.321 33.0147 47.1351 31.4934 45.2798C30.2765 43.8369 29.541 41.9754 29.541 39.9445C29.541 35.3745 33.2591 31.6566 37.829 31.6566C40.4096 31.6566 42.7181 32.8425 44.2394 34.6978C45.4563 36.1406 46.1918 38.0022 46.1918 40.0331C46.1918 44.6031 42.4737 48.321 37.9039 48.321Z" fill="#D4B783"/>
<path d="M24.5116 25.0343C26.3735 25.0343 27.8882 23.5196 27.8882 21.6577C27.8882 19.7958 26.3735 18.2811 24.5116 18.2811C22.6497 18.2811 21.135 19.7958 21.135 21.6577C21.135 23.5196 22.6499 25.0343 24.5116 25.0343Z" fill="#89634A"/>
<path d="M20.2513 48.2381C22.1132 48.2381 23.6279 46.7234 23.6279 44.8616C23.6279 42.9997 22.1132 41.485 20.2513 41.485C18.3894 41.485 16.8747 42.9997 16.8747 44.8616C16.8747 46.7234 18.3894 48.2381 20.2513 48.2381Z" fill="#89634A"/>
<path d="M10.74 16.2859C10.74 15.2878 10.3044 14.3683 9.57918 13.7388C8.17422 15.4605 6.96372 17.3463 5.98037 19.3628C6.4115 19.5569 6.88069 19.6627 7.36338 19.6627C9.22525 19.6625 10.74 18.1478 10.74 16.2859Z" fill="#89634A"/>
<path d="M54.492 45.3606C54.492 46.4999 55.0737 47.5428 55.9845 48.1591C57.2314 46.3143 58.2704 44.3184 59.0696 42.2056C58.6907 42.0609 58.2867 41.984 57.8686 41.984C56.0069 41.984 54.492 43.4987 54.492 45.3606Z" fill="#89634A"/>
<path d="M37.829 45.163C40.7064 45.163 43.0473 42.822 43.0473 39.9447C43.0473 37.0672 40.7064 34.7263 37.829 34.7263C34.9515 34.7263 32.6106 37.0672 32.6106 39.9447C32.6106 42.822 34.9515 45.163 37.829 45.163Z" fill="#89634A"/>
<path d="M29.5016 17.5822C30.4111 18.6937 30.9578 20.1129 30.9578 21.6578C30.9578 25.2123 28.0661 28.104 24.5116 28.104C22.5437 28.104 20.7799 27.2166 19.5965 25.8219C20.7796 27.2677 22.577 28.1924 24.5865 28.1924C28.141 28.1924 31.0327 25.3007 31.0327 21.7462C31.0327 20.1599 30.4556 18.7064 29.5016 17.5822Z" fill="#89634A"/>
<path d="M26.6975 44.8616C26.6975 48.416 23.8058 51.3077 20.2513 51.3077C18.2834 51.3077 16.5196 50.4203 15.3362 49.0256C16.5194 50.4714 18.3167 51.3962 20.3262 51.3962C23.8807 51.3962 26.7724 48.5044 26.7724 44.95C26.7724 43.3634 26.1951 41.9101 25.2413 40.7859C26.1506 41.8974 26.6975 43.3166 26.6975 44.8616Z" fill="#89634A"/>
<path d="M46.1169 39.9447C46.1169 44.5148 42.3988 48.2327 37.829 48.2327C35.2899 48.2327 33.015 47.0839 31.4934 45.28C33.0146 47.1351 35.3231 48.3212 37.9039 48.3212C42.4737 48.3212 46.1918 44.6033 46.1918 40.0333C46.1918 38.0024 45.4563 36.1409 44.2394 34.698C45.412 36.128 46.1169 37.9553 46.1169 39.9447Z" fill="#89634A"/>
<path d="M24.5116 28.104C28.0661 28.104 30.9578 25.2123 30.9578 21.6579C30.9578 20.1129 30.4111 18.6937 29.5016 17.5822C28.3185 16.1364 26.5213 15.2117 24.5116 15.2117C20.9572 15.2117 18.0654 18.1034 18.0654 21.6579C18.0654 23.2444 18.6427 24.6977 19.5965 25.8219C20.78 27.2166 22.5437 28.104 24.5116 28.104ZM24.5116 18.2813C26.3735 18.2813 27.8882 19.796 27.8882 21.6579C27.8882 23.5197 26.3735 25.0344 24.5116 25.0344C22.6497 25.0344 21.135 23.5197 21.135 21.6579C21.135 19.796 22.6499 18.2813 24.5116 18.2813Z" fill="black"/>
<path d="M20.2513 51.3078C23.8058 51.3078 26.6975 48.416 26.6975 44.8616C26.6975 43.3167 26.1508 41.8974 25.2413 40.7859C24.0582 39.3401 22.2608 38.4154 20.2513 38.4154C16.6968 38.4154 13.8051 41.3071 13.8051 44.8616C13.8051 46.4481 14.3824 47.9014 15.3362 49.0257C16.5196 50.4203 18.2832 51.3078 20.2513 51.3078ZM20.2513 41.485C22.1132 41.485 23.6279 42.9997 23.6279 44.8616C23.6279 46.7235 22.1132 48.2382 20.2513 48.2382C18.3894 48.2382 16.8747 46.7235 16.8747 44.8616C16.8747 42.9997 18.3894 41.485 20.2513 41.485Z" fill="black"/>
<path d="M63.9966 31.7085L63.9946 31.5809C63.9848 30.7707 63.3466 30.1078 62.5375 30.067C60.2545 29.9517 58.239 28.5876 57.2777 26.5073C57.0866 26.0938 56.7216 25.7866 56.2818 25.6685C55.8417 25.5505 55.3721 25.6342 54.9997 25.8968C53.9705 26.6227 52.7087 27.0225 51.4473 27.0227C50.3784 27.0227 49.3205 26.7382 48.3877 26.1996C46.3221 25.007 45.1274 22.6998 45.3441 20.3214C45.3854 19.8677 45.223 19.4191 44.9009 19.0971C44.5786 18.7748 44.1284 18.613 43.6766 18.6537C43.4932 18.6704 43.3065 18.6789 43.1219 18.6789C40.9314 18.6789 38.8917 17.5029 37.7987 15.6099C36.6062 13.5443 36.7253 10.9488 38.102 8.99734C38.3646 8.62515 38.4484 8.15549 38.3304 7.71547C38.2125 7.27544 37.9052 6.91046 37.4918 6.71938C35.4124 5.75828 34.0486 3.74385 33.9327 1.46206C33.8916 0.653367 33.2293 0.015655 32.4197 0.00521834L32.2945 0.00322309C32.1965 0.00153481 32.0983 0 31.9999 0C14.355 0 0 14.3552 0 32.0001C0 49.645 14.355 64.0002 31.9999 64.0002C49.6448 64.0002 63.9998 49.645 63.9998 32.0001C63.9998 31.9026 63.9983 31.8056 63.9966 31.7085ZM9.57918 13.7388C10.3044 14.3684 10.74 15.2879 10.74 16.286C10.74 18.1478 9.22525 19.6625 7.36338 19.6625C6.88069 19.6625 6.4115 19.5568 5.98037 19.3626C6.96372 17.3464 8.17422 15.4606 9.57918 13.7388ZM55.9846 48.1593C55.0737 47.5429 54.4922 46.5 54.4922 45.3607C54.4922 43.4988 56.0069 41.9841 57.8688 41.9841C58.287 41.9841 58.6908 42.061 59.0697 42.2058C58.2706 44.3186 57.2315 46.3144 55.9846 48.1593ZM60.0028 39.2797C59.3785 39.0605 58.7206 38.9379 58.0543 38.9184C57.9925 38.9165 57.9306 38.9144 57.8686 38.9144C57.7854 38.9144 57.7033 38.9188 57.6207 38.9219C55.5727 39 53.7668 40.0362 52.6404 41.5963C51.875 42.6562 51.4223 43.9562 51.4223 45.3606C51.4223 47.4772 52.4733 49.4207 54.1327 50.6085C52.7005 52.3094 51.0731 53.8396 49.2906 55.173C49.1644 55.2674 49.0396 55.3633 48.9119 55.4557C44.1522 58.898 38.3095 60.9304 31.9996 60.9304C16.0476 60.9304 3.06946 47.9524 3.06946 32.0001C3.06946 29.502 3.38946 27.0775 3.98773 24.7638C4.21227 23.8955 4.47488 23.0425 4.77601 22.2076C4.77785 22.2026 4.77938 22.1976 4.78123 22.1925C4.78337 22.1934 4.78568 22.1942 4.78798 22.1953C5.59252 22.5463 6.46675 22.7322 7.36338 22.7322C8.63589 22.7322 9.82229 22.36 10.8227 21.721C12.6166 20.5751 13.8096 18.5679 13.8096 16.286C13.8096 14.503 13.0831 12.85 11.8556 11.6602C11.7864 11.5932 11.7166 11.5268 11.6443 11.4628C16.668 6.48302 23.5022 3.327 31.0599 3.0845C31.5444 5.35033 32.8654 7.34297 34.7598 8.67395C33.5221 11.3591 33.6331 14.5337 35.1404 17.1445C36.6401 19.7422 39.3271 21.4397 42.2876 21.7103C42.5578 24.6553 44.2412 27.3502 46.8527 28.8579C48.2515 29.6655 49.8403 30.0923 51.4473 30.0922C52.801 30.092 54.1166 29.801 55.3239 29.2413C56.6555 31.1357 58.6484 32.4562 60.9147 32.9405C60.8451 35.1225 60.5323 37.2444 60.0028 39.2797Z" fill="black"/>
<path d="M37.829 48.2326C42.3988 48.2326 46.1169 44.5147 46.1169 39.9447C46.1169 37.9554 45.412 36.1279 44.2394 34.698C42.7182 32.8428 40.4097 31.6567 37.829 31.6567C33.2591 31.6567 29.541 35.3747 29.541 39.9447C29.541 41.9755 30.2765 43.8371 31.4934 45.28C33.015 47.0838 35.2899 48.2326 37.829 48.2326ZM37.829 34.7263C40.7064 34.7263 43.0473 37.0672 43.0473 39.9447C43.0473 42.822 40.7064 45.163 37.829 45.163C34.9515 45.163 32.6106 42.822 32.6106 39.9447C32.6106 37.0672 34.9515 34.7263 37.829 34.7263Z" fill="black"/>
</svg>
